# xmcd CD database file
#
# Track frame offsets:
#	150
#	48312
#	75299
#	83686
#	100231
#	178349
#	192743
#	218678
#
# Disc length: 4019 seconds
#
# Revision: 0
# Processed by: cddbd v1.5.1PL0 Copyright (c) Steve Scherf et al.
# Submitted via: CDex 1.51
#
DISCID=630fb108
DTITLE=Jonn Serrie - Tai Chi Meditation Vol. 2
DYEAR=2000
DGENRE=New Age
TTITLE0=Eight Direction Perception
TTITLE1=Constellations
TTITLE2=Life Elsewhere
TTITLE3=Atmospheres
TTITLE4=Gentle Mist
TTITLE5=Rolling River
TTITLE6=Vista
TTITLE7=Constellations  Maiden Voyage
EXTD=YEAR: 2000
EXTT0=
EXTT1=
EXTT2=
EXTT3=
EXTT4=
EXTT5=
EXTT6=
EXTT7=
PLAYORDER=
